<svg xmlns="http://www.w3.org/2000/svg" viewBox="0 0 700 700" role="img" aria-labelledby="logoTitle logoDesc">
  <title id="logoTitle">dotcomchesthairs outline logo</title>
  <desc id="logoDesc">Outline of a young superhero-style boy pulling open his shirt over a yellow circle background.</desc>
  <defs>
    <radialGradient id="bg" cx="50%" cy="33%" r="66%">
      <stop offset="0%" stop-color="#fff3a8"/>
      <stop offset="70%" stop-color="#ffd700"/>
      <stop offset="100%" stop-color="#c88a00"/>
    </radialGradient>
    <style>
      .line {
        fill: none;
        stroke: #003366;
        stroke-width: 12;
        stroke-linecap: round;
        stroke-linejoin: round;
      }
      .line-thin {
        fill: none;
        stroke: #003366;
        stroke-width: 8;
        stroke-linecap: round;
        stroke-linejoin: round;
      }
    </style>
  </defs>

  <circle cx="350" cy="350" r="330" fill="url(#bg)"/>
  <circle cx="350" cy="350" r="330" fill="none" stroke="#003366" stroke-width="14"/>

  <g transform="translate(350 240)">
    <path class="line" d="M -84 -40 L -34 -62 L 34 -62 L 84 -40 L 82 8 L -82 8 Z"/>
    <path class="line-thin" d="M -82 8 Q -80 52 -48 78 Q -20 98 0 98 Q 20 98 48 78 Q 80 52 82 8"/>
    <path class="line-thin" d="M -74 30 L -34 30"/>
    <path class="line-thin" d="M 34 30 L 74 30"/>
    <circle cx="-54" cy="48" r="7" fill="#003366"/>
    <circle cx="54" cy="48" r="7" fill="#003366"/>
    <path class="line-thin" d="M -22 74 Q 0 86 22 74"/>
  </g>

  <g transform="translate(350 430)">
    <path class="line" d="M -246 120 L -166 6 L -122 30 L -154 148 Z"/>
    <path class="line" d="M 246 120 L 166 6 L 122 30 L 154 148 Z"/>

    <path class="line" d="M -220 126 Q -198 72 -160 72 Q -128 72 -120 102 Q -112 136 -138 160 Q -174 190 -220 126 Z"/>
    <path class="line" d="M 220 126 Q 198 72 160 72 Q 128 72 120 102 Q 112 136 138 160 Q 174 190 220 126 Z"/>

    <path class="line" d="M -180 88 Q -146 34 -78 22 Q -28 12 0 14 Q 28 12 78 22 Q 146 34 180 88 L 150 178 Q 82 222 0 230 Q -82 222 -150 178 Z"/>

    <path class="line" d="M -96 34 Q -36 74 0 72 Q 36 74 96 34 L 124 124 Q 64 172 0 176 Q -64 172 -124 124 Z"/>

    <path class="line-thin" d="M -16 96 q -10 8 0 16"/>
    <path class="line-thin" d="M 0 92 q 10 8 0 16"/>
    <path class="line-thin" d="M 16 96 q -10 8 0 16"/>
    <path class="line-thin" d="M 0 112 q -12 8 0 16"/>
  </g>
</svg>
